<?xml version="1.0" encoding="utf-8"?>
<svg version="1.1" xmlns:xlink="http://www.w3.org/1999/xlink" width="34px" height="15px" xmlns="http://www.w3.org/2000/svg">
  <g transform="matrix(1 0 0 1 -371 -9 )">
    <path d="M 3.77777777777778 3  L 28.3333333333333 3  L 28.3333333333333 12  L 3.77777777777778 12  L 3.77777777777778 3  Z M 30.2222222222222 13.125  L 30.2222222222222 9.75  L 32.1111111111111 9.75  L 32.1111111111111 5.25  L 30.2222222222222 5.25  L 30.2222222222222 1.875  C 30.2222222222222 1.765625  30.1779513888889 1.67578125  30.0894097222222 1.60546875  C 30.0008680555556 1.53515625  29.8877314814815 1.5  29.75 1.5  L 2.36111111111111 1.5  C 2.22337962962963 1.5  2.11024305555556 1.53515625  2.02170138888889 1.60546875  C 1.93315972222222 1.67578125  1.88888888888889 1.765625  2 1.875  L 2 13.125  C 1.88888888888889 13.234375  1.93315972222222 13.32421875  2.02170138888889 13.39453125  C 2.11024305555556 13.46484375  2.22337962962963 13.5  2.36111111111111 13.5  L 29.75 13.5  C 29.8877314814815 13.5  30.0008680555556 13.46484375  30.0894097222222 13.39453125  C 30.1779513888889 13.32421875  30.2222222222222 13.234375  30.2222222222222 13.125  Z M 33.4466145833333 4.189453125  C 33.8155381944444 4.482421875  34 4.8359375  34 5.25  L 34 9.75  C 34 10.1640625  33.8155381944444 10.517578125  33.4466145833333 10.810546875  C 33.0776909722222 11.103515625  32.6325231481482 11.25  32.1111111111111 11.25  L 32.1111111111111 13.125  C 32.1111111111111 13.640625  31.8799189814815 14.08203125  31.4175347222222 14.44921875  C 30.955150462963 14.81640625  30.3993055555556 15  29.75 15  L 2.36111111111111 15  C 1.71180555555556 15  1.15596064814815 14.81640625  0.693576388888889 14.44921875  C 0.23119212962963 14.08203125  0 13.640625  0 13.125  L 0 1.875  C 0 1.359375  0.23119212962963 0.917968749999999  0.693576388888889 0.55078125  C 1.15596064814815 0.183593749999998  1.71180555555556 0  2.36111111111111 0  L 29.75 0  C 30.3993055555556 0  30.955150462963 0.183593749999998  31.4175347222222 0.55078125  C 31.8799189814815 0.917968749999999  32.1111111111111 1.359375  32.1111111111111 1.875  L 32.1111111111111 3.75  C 32.6325231481482 3.75  33.0776909722222 3.896484375  33.4466145833333 4.189453125  Z " fill-rule="nonzero" fill="#99ecd3" stroke="none" transform="matrix(1 0 0 1 371 9 )" />
  </g>
</svg>