<?xml version="1.0" encoding="utf-8"?>
<svg version="1.1" xmlns:xlink="http://www.w3.org/1999/xlink" width="28px" height="35px" xmlns="http://www.w3.org/2000/svg">
  <g transform="matrix(1 0 0 1 -191 -685 )">
    <path d="M 27.5381944444444 13.8611778846154  C 27.8460648148148 14.1276041666667  28 14.443108974359  28 14.8076923076923  L 28 17.5  C 28 20.5989583333333  26.8049768518519 23.2947716346154  24.4149305555556 25.5874399038462  C 22.0248842592593 27.8801081730769  19.0717592592593 29.1947115384615  15.5555555555556 29.53125  L 15.5555555555556 32.3076923076923  L 21.7777777777778 32.3076923076923  C 22.1990740740741 32.3076923076923  22.5636574074074 32.4409054487179  22.8715277777778 32.7073317307692  C 23.1793981481482 32.9737580128205  23.3333333333333 33.2892628205128  23.3333333333333 33.6538461538462  C 23.3333333333333 34.0184294871795  23.1793981481482 34.3339342948718  22.8715277777778 34.6003605769231  C 22.5636574074074 34.8667868589744  22.1990740740741 35  21.7777777777778 35  L 6.22222222222222 35  C 5.80092592592593 35  5.43634259259259 34.8667868589744  5.12847222222222 34.6003605769231  C 4.82060185185185 34.3339342948718  4.66666666666667 34.0184294871795  4.66666666666667 33.6538461538462  C 4.66666666666667 33.2892628205128  4.82060185185185 32.9737580128205  5.12847222222222 32.7073317307692  C 5.43634259259259 32.4409054487179  5.80092592592593 32.3076923076923  6.22222222222222 32.3076923076923  L 12.4444444444444 32.3076923076923  L 12.4444444444444 29.53125  C 8.92824074074074 29.1947115384615  5.97511574074074 27.8801081730769  3.58506944444444 25.5874399038462  C 1.19502314814815 23.2947716346154  0 20.5989583333333  0 17.5  L 0 14.8076923076923  C 0 14.443108974359  0.153935185185185 14.1276041666667  0.461805555555556 13.8611778846154  C 0.769675925925926 13.5947516025641  1.13425925925926 13.4615384615385  1.55555555555556 13.4615384615385  C 1.97685185185185 13.4615384615385  2.34143518518519 13.5947516025641  2.64930555555556 13.8611778846154  C 2.95717592592593 14.1276041666667  3.11111111111111 14.443108974359  3.11111111111111 14.8076923076923  L 3.11111111111111 17.5  C 3.11111111111111 20.0941506410256  4.17650462962963 22.3132011217949  6.30729166666667 24.1571514423077  C 8.4380787037037 26.0011017628205  11.0023148148148 26.9230769230769  14 26.9230769230769  C 16.9976851851852 26.9230769230769  19.5619212962963 26.0011017628205  21.6927083333333 24.1571514423077  C 23.8234953703704 22.3132011217949  24.8888888888889 20.0941506410256  24.8888888888889 17.5  L 24.8888888888889 14.8076923076923  C 24.8888888888889 14.443108974359  25.0428240740741 14.1276041666667  25.3506944444444 13.8611778846154  C 25.6585648148148 13.5947516025641  26.0231481481482 13.4615384615385  26.4444444444444 13.4615384615385  C 26.8657407407407 13.4615384615385  27.2303240740741 13.5947516025641  27.5381944444444 13.8611778846154  Z M 19.4930555555556 1.97716346153846  C 21.0162037037037 3.29527243589743  21.7777777777778 4.87980769230769  21.7777777777778 6.73076923076923  L 21.7777777777778 17.5  C 21.7777777777778 19.3509615384615  21.0162037037037 20.9354967948718  19.4930555555556 22.2536057692308  C 17.9699074074074 23.5717147435897  16.1388888888889 24.2307692307692  14 24.2307692307692  C 11.8611111111111 24.2307692307692  10.0300925925926 23.5717147435897  8.50694444444444 22.2536057692308  C 6.9837962962963 20.9354967948718  6.22222222222222 19.3509615384615  6.22222222222222 17.5  L 6.22222222222222 6.73076923076923  C 6.22222222222222 4.87980769230769  6.9837962962963 3.29527243589743  8.50694444444444 1.97716346153846  C 10.0300925925926 0.659054487179491  11.8611111111111 0  14 0  C 16.1388888888889 0  17.9699074074074 0.659054487179491  19.4930555555556 1.97716346153846  Z " fill-rule="nonzero" fill="#797979" stroke="none" transform="matrix(1 0 0 1 191 685 )" />
  </g>
</svg>