<?xml version="1.0" encoding="utf-8"?>
<svg version="1.1" xmlns:xlink="http://www.w3.org/1999/xlink" width="35px" height="39px" xmlns="http://www.w3.org/2000/svg">
  <g transform="matrix(1 0 0 1 -338 -681 )">
    <path d="M 33.1656901041667 12.9609375  C 34.3885633680556 15.4765625  35 18.15625  35 21  C 35 23.4375  34.5366753472222 25.765625  33.6100260416667 27.984375  C 32.6833767361111 30.203125  31.4377170138889 32.1171875  29.873046875 33.7265625  C 28.3083767361111 35.3359375  26.4474826388889 36.6171875  24.2903645833333 37.5703125  C 22.1332465277778 38.5234375  19.8697916666667 39  17.5 39  C 15.1302083333333 39  12.8667534722222 38.5234375  10.7096354166667 37.5703125  C 8.55251736111111 36.6171875  6.69162326388889 35.3359375  5.126953125 33.7265625  C 3.56228298611111 32.1171875  2.31662326388889 30.203125  1.38997395833333 27.984375  C 0.463324652777778 25.765625  0 23.4375  0 21  C 0 18.15625  0.611436631944445 15.4765625  1.83430989583333 12.9609375  C 3.05718315972222 10.4453125  4.77756076388889 8.3359375  6.99544270833333 6.6328125  C 7.64865451388889 6.13281249999999  8.3740234375 5.9375  9.17154947916667 6.046875  C 9.96907552083333 6.15625  10.6032986111111 6.546875  11.07421875 7.21875  C 11.5603298611111 7.875  11.7464192708333 8.61328125  11.6324869791667 9.43359375  C 11.5185546875 10.25390625  11.142578125 10.9140625  10.5045572916667 11.4140625  C 9.01584201388889 12.5703125  7.86512586805556 13.984375  7.05240885416667 15.65625  C 6.23969184027778 17.328125  5.83333333333333 19.109375  5.83333333333333 21  C 5.83333333333333 22.625  6.14095052083333 24.17578125  6.75618489583333 25.65234375  C 7.37141927083333 27.12890625  8.203125 28.40625  9.25130208333333 29.484375  C 10.2994791666667 30.5625  11.5413411458333 31.41796875  12.9768880208333 32.05078125  C 14.4124348958333 32.68359375  15.9201388888889 33  17.5 33  C 19.0798611111111 33  20.5875651041667 32.68359375  22.0231119791667 32.05078125  C 23.4586588541667 31.41796875  24.7005208333333 30.5625  25.7486979166667 29.484375  C 26.796875 28.40625  27.6285807291667 27.12890625  28.2438151041667 25.65234375  C 28.8590494791667 24.17578125  29.1666666666667 22.625  29.1666666666667 21  C 29.1666666666667 19.109375  28.7603081597222 17.328125  27.9475911458333 15.65625  C 27.1348741319445 13.984375  25.9841579861111 12.5703125  24.4954427083333 11.4140625  C 23.857421875 10.9140625  23.4814453125 10.25390625  23.3675130208333 9.43359375  C 23.2535807291667 8.61328125  23.4396701388889 7.875  23.92578125 7.21875  C 24.3967013888889 6.546875  25.0347222222222 6.15625  25.83984375 6.046875  C 26.6449652777778 5.9375  27.3665364583333 6.13281249999999  28.0045572916667 6.6328125  C 30.2224392361111 8.3359375  31.9428168402778 10.4453125  33.1656901041667 12.9609375  Z M 19.55078125 0.890624999999999  C 20.1280381944444 1.484375  20.4166666666667 2.1875  20 3  L 20 18  C 20.4166666666667 18.8125  20.1280381944444 19.515625  19.55078125 20.109375  C 18.9735243055556 20.703125  18.2899305555556 21  17.5 21  C 16.7100694444444 21  16.0264756944444 20.703125  15.44921875 20.109375  C 14.8719618055556 19.515625  14.5833333333333 18.8125  15 18  L 15 3  C 14.5833333333333 2.1875  14.8719618055556 1.484375  15.44921875 0.890624999999999  C 16.0264756944444 0.296875000000001  16.7100694444444 0  17.5 0  C 18.2899305555556 0  18.9735243055556 0.296875000000001  19.55078125 0.890624999999999  Z " fill-rule="nonzero" fill="#ef5b5b" stroke="none" transform="matrix(1 0 0 1 338 681 )" />
  </g>
</svg>