<?xml version="1.0" encoding="utf-8"?>
<svg version="1.1" xmlns:xlink="http://www.w3.org/1999/xlink" width="236px" height="56px" xmlns="http://www.w3.org/2000/svg">
  <g>
    <path d="M 22.1786928169639 0.5  C 22.1786928169639 0.5  18.6492737968442 0.918744629505723  18.6492737968442 0.918744629505723  C 18.6492737968442 0.918744629505723  0.546188310262581 28  0.546188310262581 28  C 0.546188310262581 28  18.6492737968442 55.0812553704943  18.6492737968442 55.0812553704943  C 18.6492737968442 55.0812553704943  22.1786928169639 55.5  22.1786928169639 55.5  C 22.1786928169639 55.5  227 55.5  227 55.5  C 231.76 55.5  235.5 51.76  235.5 47  C 235.5 47  235.5 9  235.5 9  C 235.5 4.24  231.76 0.5  227 0.5  C 227 0.5  22.1786928169639 0.5  22.1786928169639 0.5  Z " fill-rule="nonzero" fill="#ffffff" stroke="none" />
    <path d="M 22.1786928169639 0.5  C 22.1786928169639 0.5  18.6492737968442 0.918744629505723  18.6492737968442 0.918744629505723  C 18.6492737968442 0.918744629505723  0.546188310262581 28  0.546188310262581 28  C 0.546188310262581 28  18.6492737968442 55.0812553704943  18.6492737968442 55.0812553704943  C 18.6492737968442 55.0812553704943  22.1786928169639 55.5  22.1786928169639 55.5  C 22.1786928169639 55.5  227 55.5  227 55.5  C 231.76 55.5  235.5 51.76  235.5 47  C 235.5 47  235.5 9  235.5 9  C 235.5 4.24  231.76 0.5  227 0.5  C 227 0.5  22.1786928169639 0.5  22.1786928169639 0.5  Z " stroke-width="1" stroke="#797979" fill="none" />
  </g>
</svg>