<?xml version="1.0" encoding="utf-8"?>
<svg version="1.1" xmlns:xlink="http://www.w3.org/1999/xlink" width="34px" height="34px" xmlns="http://www.w3.org/2000/svg">
  <g transform="matrix(1 0 0 1 -192 -11 )">
    <path d="M 28.0234375 14.41015625  C 28.2890625 14.14453125  28.421875 13.8125  28.421875 13.4140625  C 28.421875 13.0008680555556  28.2890625 12.6614583333333  28.0234375 12.3958333333333  L 26.0091145833333 10.4036458333333  C 25.7287326388889 10.1232638888889  25.3967013888889 9.98307291666667  25.0130208333333 9.98307291666667  C 24.6293402777778 9.98307291666667  24.2973090277778 10.1232638888889  24.0169270833333 10.4036458333333  L 14.9856770833333 19.4127604166667  L 9.98307291666667 14.41015625  C 9.70269097222222 14.1297743055556  9.37065972222222 13.9895833333333  8.98697916666667 13.9895833333333  C 8.60329861111111 13.9895833333333  8.27126736111111 14.1297743055556  7.99088541666667 14.41015625  L 5.9765625 16.40234375  C 5.7109375 16.66796875  5.578125 17.0073784722222  5.578125 17.4205729166667  C 5.578125 17.8190104166667  5.7109375 18.1510416666667  5.9765625 18.4166666666667  L 13.9895833333333 26.4296875  C 14.2699652777778 26.7100694444444  14.6019965277778 26.8502604166667  14.9856770833333 26.8502604166667  C 15.3841145833333 26.8502604166667  15.7235243055556 26.7100694444444  16.00390625 26.4296875  L 28.0234375 14.41015625  Z M 31.7200520833333 8.466796875  C 33.2400173611111 11.0713975694444  34 13.9157986111111  34 17  C 34 20.0842013888889  33.2400173611111 22.9286024305556  31.7200520833333 25.533203125  C 30.2000868055556 28.1378038194444  28.1378038194444 30.2000868055556  25.533203125 31.7200520833333  C 22.9286024305556 33.2400173611111  20.0842013888889 34  17 34  C 13.9157986111111 34  11.0713975694444 33.2400173611111  8.466796875 31.7200520833333  C 5.86219618055556 30.2000868055556  3.79991319444444 28.1378038194444  2.27994791666667 25.533203125  C 0.759982638888889 22.9286024305556  0 20.0842013888889  0 17  C 0 13.9157986111111  0.759982638888889 11.0713975694444  2.27994791666667 8.466796875  C 3.79991319444444 5.86219618055556  5.86219618055556 3.79991319444444  8.466796875 2.27994791666667  C 11.0713975694444 0.759982638888886  13.9157986111111 0  17 0  C 20.0842013888889 0  22.9286024305556 0.759982638888886  25.533203125 2.27994791666667  C 28.1378038194444 3.79991319444444  30.2000868055556 5.86219618055556  31.7200520833333 8.466796875  Z " fill-rule="nonzero" fill="#01b433" stroke="none" transform="matrix(1 0 0 1 192 11 )" />
  </g>
</svg>