<?xml version="1.0" encoding="utf-8"?>
<svg version="1.1" xmlns:xlink="http://www.w3.org/1999/xlink" width="68px" height="54px" xmlns="http://www.w3.org/2000/svg">
  <g transform="matrix(1 0 0 1 -964 -804 )">
    <path d="M 20.6833333333333 10.96875  C 22.0055555555556 12.28125  22.6666666666667 13.875  22.6666666666667 15.75  C 22.6666666666667 17.625  22.0055555555556 19.21875  20.6833333333333 20.53125  C 19.3611111111111 21.84375  17.7555555555556 22.5  15.8666666666667 22.5  C 13.9777777777778 22.5  12.3722222222222 21.84375  11.05 20.53125  C 9.72777777777778 19.21875  9.06666666666667 17.625  9.06666666666667 15.75  C 9.06666666666667 13.875  9.72777777777778 12.28125  11.05 10.96875  C 12.3722222222222 9.65624999999999  13.9777777777778 9  15.8666666666667 9  C 17.7555555555556 9  19.3611111111111 9.65624999999999  20.6833333333333 10.96875  Z M 44.2 14.625  L 59 29.25  L 59 45  L 9.06666666666667 45  L 9.06666666666667 38.25  L 20.4 27  L 26.0666666666667 32.625  L 44.2 14.625  Z M 63.1302083333333 4.833984375  C 62.9059027777778 4.61132812499999  62.6402777777778 4.5  62.3333333333333 5  L 5.66666666666667 5  C 5.35972222222222 4.5  5.09409722222222 4.61132812499999  4.86979166666667 4.833984375  C 4.64548611111111 5.056640625  4.53333333333333 5.3203125  5 5.625  L 5 48.375  C 4.53333333333333 48.6796875  4.64548611111111 48.943359375  4.86979166666667 49.166015625  C 5.09409722222222 49.388671875  5.35972222222222 49.5  5.66666666666667 49  L 62.3333333333333 49  C 62.6402777777778 49.5  62.9059027777778 49.388671875  63.1302083333333 49.166015625  C 63.3545138888889 48.943359375  63.4666666666667 48.6796875  63 48.375  L 63 5.625  C 63.4666666666667 5.3203125  63.3545138888889 5.056640625  63.1302083333333 4.833984375  Z M 66.3354166666667 1.65234375  C 67.4451388888889 2.75390625  68 4.078125  68 5.625  L 68 48.375  C 68 49.921875  67.4451388888889 51.24609375  66.3354166666667 52.34765625  C 65.2256944444444 53.44921875  63.8916666666667 54  62.3333333333333 54  L 5.66666666666667 54  C 4.10833333333333 54  2.77430555555556 53.44921875  1.66458333333333 52.34765625  C 0.554861111111111 51.24609375  0 49.921875  0 48.375  L 0 5.625  C 0 4.078125  0.554861111111111 2.75390625  1.66458333333333 1.65234375  C 2.77430555555556 0.550781249999995  4.10833333333333 0  5.66666666666667 0  L 62.3333333333333 0  C 63.8916666666667 0  65.2256944444444 0.550781249999995  66.3354166666667 1.65234375  Z " fill-rule="nonzero" fill="#a6cae4" stroke="none" transform="matrix(1 0 0 1 964 804 )" />
  </g>
</svg>